<svg xmlns="http://www.w3.org/2000/svg" viewBox="0 0 480 360">
  <defs>
    <linearGradient id="sky" x1="0%" y1="0%" x2="0%" y2="100%">
      <stop offset="0%" stop-color="#0f172a" />
      <stop offset="100%" stop-color="#1b8aff" />
    </linearGradient>
    <linearGradient id="aurora" x1="0%" y1="0%" x2="100%" y2="0%">
      <stop offset="0%" stop-color="#1b8aff" />
      <stop offset="100%" stop-color="#ff7a2b" />
    </linearGradient>
  </defs>
  <rect width="480" height="360" fill="url(#sky)" />
  <path d="M0 260c60-40 120-40 180 0s120 40 180 0 120-40 120 0v100H0Z" fill="#0f172a" />
  <path
    d="M40 200c80-60 160-60 240 0s160 60 160 0"
    fill="none"
    stroke="url(#aurora)"
    stroke-width="18"
    stroke-linecap="round"
    opacity=".8"
  />
  <path
    d="m180 160 70-24 90 32c6 3 6 12-1 14l-70 20a30 30 0 0 1-17 0L179 187c-7-2-8-11-1-14Z"
    fill="#f8fafc"
    opacity=".9"
  />
  <circle cx="360" cy="96" r="24" fill="#fbbf24" opacity=".7" />
</svg>

